<?xml version="1.0" encoding="UTF-8" standalone="no"?>
<svg width="1084px" height="410px" viewBox="0 0 1084 410" version="1.1" xmlns="http://www.w3.org/2000/svg" xmlns:xlink="http://www.w3.org/1999/xlink">
    <!-- Generator: Sketch 41.2 (35397) - http://www.bohemiancoding.com/sketch -->
    <title>Artboard Copy</title>
    <desc>Created with Sketch.</desc>
    <defs></defs>
    <g id="Page-1" stroke="none" stroke-width="1" fill="none" fill-rule="evenodd">
        <g id="Artboard-Copy">
            <g id="Group" transform="translate(47.000000, 49.000000)">
                <g id="star-copy-12">
                    <polygon id="Triangle-8" stroke="#387B86" fill="#387B86" points="159.946768 263.213921 195.766164 276.029427 159.946768 311.419629 123.761211 276.029427"></polygon>
                    <polygon id="Triangle-8-Copy" stroke="#387B86" fill="#387B86" transform="translate(101.862911, 37.515288) scale(1, -1) rotate(26.000000) translate(-101.862911, -37.515288) " points="102.045991 13.4124341 137.865388 26.2279406 102.045991 61.618142 65.8604339 26.2279406"></polygon>
                    <polygon id="Triangle-8-Copy-7" stroke="#5FCFE2" fill="#5FCFE2" transform="translate(159.684170, 49.940010) scale(1, -1) translate(-159.684170, -49.940010) " points="159.830357 30.6942979 188.431525 40.9272583 159.830357 69.185722 130.936815 40.9272583"></polygon>
                    <polygon id="Triangle-8-Copy-8" stroke="#5FCFE2" fill="#5FCFE2" transform="translate(206.727337, 252.609141) rotate(-26.000000) translate(-206.727337, -252.609141) " points="206.873524 233.363429 235.474692 243.596389 206.873524 271.854853 177.979982 243.596389"></polygon>
                    <polygon id="Triangle-8-Copy-9" stroke="#5FCFE2" fill="#5FCFE2" transform="translate(114.232136, 252.289714) scale(-1, 1) rotate(-26.000000) translate(-114.232136, -252.289714) " points="114.378322 233.044001 142.979491 243.276962 114.378322 271.535426 85.4847804 243.276962"></polygon>
                    <polygon id="Triangle-8-Copy-10" stroke="#5FCFE2" fill="#5FCFE2" transform="translate(77.417978, 90.113401) scale(-1, -1) rotate(-52.000000) translate(-77.417978, -90.113401) " points="77.5641647 70.8676885 106.165333 81.1006488 77.5641647 109.359113 48.6706228 81.1006488"></polygon>
                    <polygon id="Triangle-8-Copy-11" stroke="#5FCFE2" fill="#5FCFE2" transform="translate(243.745968, 90.376571) scale(1, -1) rotate(-52.000000) translate(-243.745968, -90.376571) " points="243.892154 71.1308591 272.493323 81.3638194 243.892154 109.622283 214.998613 81.3638194"></polygon>
                    <polygon id="Triangle-8-Copy-12" stroke="#5FCFE2" fill="#5FCFE2" transform="translate(263.902535, 179.913525) scale(1, -1) rotate(-103.000000) translate(-263.902535, -179.913525) " points="264.048721 160.667813 292.64989 170.900773 264.048721 199.159237 235.155179 170.900773"></polygon>
                    <polygon id="Triangle-8-Copy-13" stroke="#5FCFE2" fill="#5FCFE2" transform="translate(56.545820, 180.132659) scale(-1, -1) rotate(-103.000000) translate(-56.545820, -180.132659) " points="56.6920062 160.886947 85.2931747 171.119908 56.6920062 199.378371 27.7984643 171.119908"></polygon>
                    <polygon id="Triangle-8-Copy-14" stroke="#387B86" fill="#387B86" transform="translate(94.426415, 208.902832) scale(-1, -1) rotate(-129.000000) translate(-94.426415, -208.902832) " points="94.54247 193.623973 117.248475 201.747755 94.54247 224.181692 71.6043547 201.747755"></polygon>
                    <polygon id="Triangle-8-Copy-15" stroke="#387B86" fill="#387B86" transform="translate(226.147283, 208.902832) scale(1, -1) rotate(-129.000000) translate(-226.147283, -208.902832) " points="226.263338 193.623973 248.969343 201.747755 226.263338 224.181692 203.325223 201.747755"></polygon>
                    <polygon id="Triangle-8-Copy-16" stroke="#387B86" fill="#387B86" transform="translate(241.828338, 137.418759) rotate(-102.000000) translate(-241.828338, -137.418759) " points="241.944393 122.1399 264.650398 130.263681 241.944393 152.697618 219.006278 130.263681"></polygon>
                    <polygon id="Triangle-8-Copy-17" stroke="#387B86" fill="#387B86" transform="translate(77.681578, 137.418759) scale(-1, 1) rotate(-102.000000) translate(-77.681578, -137.418759) " points="77.7976335 122.1399 100.503638 130.263681 77.7976335 152.697618 54.8595182 130.263681"></polygon>
                    <polygon id="Triangle-8-Copy-18" stroke="#387B86" fill="#387B86" transform="translate(122.706141, 79.875193) scale(-1, 1) rotate(-154.000000) translate(-122.706141, -79.875193) " points="122.822196 64.5963338 145.528201 72.7201154 122.822196 95.1540524 99.8840812 72.7201154"></polygon>
                    <polygon id="Triangle-8-Copy-19" stroke="#387B86" fill="#387B86" transform="translate(197.336923, 79.587602) rotate(-154.000000) translate(-197.336923, -79.587602) " points="197.452978 64.3087431 220.158983 72.4325247 197.452978 94.8664617 174.514863 72.4325247"></polygon>
                    <polygon id="Triangle-8-Copy-20" stroke="#387B86" fill="#387B86" points="159.818444 225.344293 182.524449 233.468074 159.818444 255.902011 136.880329 233.468074"></polygon>
                    <polygon id="Triangle-8-Copy-21" stroke="#5FCFE2" fill="#5FCFE2" transform="translate(159.513976, 89.609743) scale(1, -1) translate(-159.513976, -89.609743) " points="159.603478 77.8266539 177.114397 84.0917317 159.603478 101.392832 141.913554 84.0917317"></polygon>
                    <polygon id="Triangle-8-Copy-22" stroke="#5FCFE2" fill="#5FCFE2" transform="translate(108.575425, 114.338314) scale(1, -1) rotate(51.000000) translate(-108.575425, -114.338314) " points="108.664927 102.555225 126.175846 108.820303 108.664927 126.121403 90.9750034 108.820303"></polygon>
                    <polygon id="Triangle-8-Copy-23" stroke="#5FCFE2" fill="#5FCFE2" transform="translate(211.525035, 114.656806) scale(-1, -1) rotate(51.000000) translate(-211.525035, -114.656806) " points="211.614537 102.873717 229.125457 109.138795 211.614537 126.439895 193.924614 109.138795"></polygon>
                    <polygon id="Triangle-8-Copy-24" stroke="#5FCFE2" fill="#5FCFE2" transform="translate(224.069880, 170.430094) scale(-1, 1) rotate(78.000000) translate(-224.069880, -170.430094) " points="224.159382 158.647005 241.670302 164.912083 224.159382 182.213183 206.469458 164.912083"></polygon>
                    <polygon id="Triangle-8-Copy-25" stroke="#5FCFE2" fill="#5FCFE2" transform="translate(95.920560, 170.580097) rotate(78.000000) translate(-95.920560, -170.580097) " points="96.0100625 158.797008 113.520982 165.062086 96.0100625 182.363186 78.3201389 165.062086"></polygon>
                    <polygon id="Triangle-8-Copy-26" stroke="#5FCFE2" fill="#5FCFE2" transform="translate(131.202936, 215.355835) rotate(25.000000) translate(-131.202936, -215.355835) " points="131.292438 203.572746 148.803357 209.837824 131.292438 227.138924 113.602514 209.837824"></polygon>
                    <polygon id="Triangle-8-Copy-27" stroke="#5FCFE2" fill="#5FCFE2" transform="translate(188.709020, 215.360089) scale(-1, 1) rotate(25.000000) translate(-188.709020, -215.360089) " points="188.798522 203.577 206.309442 209.842078 188.798522 227.143178 171.108599 209.842078"></polygon>
                    <polygon id="Triangle-8-Copy-2" stroke="#387B86" fill="#387B86" transform="translate(217.902723, 37.515288) scale(-1, -1) rotate(26.000000) translate(-217.902723, -37.515288) " points="218.085804 13.4124341 253.9052 26.2279406 218.085804 61.618142 181.900246 26.2279406"></polygon>
                    <polygon id="Triangle-8-Copy-3" stroke="#387B86" fill="#387B86" transform="translate(287.683421, 126.281225) scale(-1, 1) rotate(103.000000) translate(-287.683421, -126.281225) " points="287.866501 102.178371 323.685898 114.993878 287.866501 150.384079 251.680944 114.993878"></polygon>
                    <polygon id="Triangle-8-Copy-4" stroke="#387B86" fill="#387B86" transform="translate(32.082213, 126.281225) rotate(103.000000) translate(-32.082213, -126.281225) " points="32.2652936 102.178371 68.08469 114.993878 32.2652936 150.384079 -3.92026392 114.993878"></polygon>
                    <polygon id="Triangle-8-Copy-5" stroke="#387B86" fill="#387B86" transform="translate(57.171902, 237.042262) rotate(51.000000) translate(-57.171902, -237.042262) " points="57.3549827 212.939408 93.1743791 225.754914 57.3549827 261.145116 21.1694252 225.754914"></polygon>
                    <polygon id="Triangle-8-Copy-6" stroke="#387B86" fill="#387B86" transform="translate(262.375642, 237.287108) scale(-1, 1) rotate(51.000000) translate(-262.375642, -237.287108) " points="262.558723 213.184254 298.378119 225.999761 262.558723 261.389962 226.373165 225.999761"></polygon>
                </g>
                <text id="BORNITA" font-family="MyanmarMN-Bold, Myanmar MN" font-size="110" font-weight="bold" letter-spacing="11" fill="#5FCFE2">
                    <tspan x="373" y="186">BORNIT</tspan>
                    <tspan x="893.125977" y="186" letter-spacing="10.083333">A</tspan>
                </text>
            </g>
        </g>
    </g>
</svg>